<mxfile><diagram id="78BMTdK2kCri4ssgLkKJ" name="Page-1"><mxGraphModel dx="2504" dy="1153" grid="1" gridSize="10" guides="1" tooltips="1" connect="1" arrows="1" fold="1" page="1" pageScale="1" pageWidth="1400" pageHeight="850" math="0" shadow="0"><root><mxCell id="0"/><mxCell id="1" parent="0"/><mxCell id="4" style="edgeStyle=none;html=1;" edge="1" parent="1" source="2"><mxGeometry relative="1" as="geometry"><mxPoint x="530" y="90" as="targetPoint"/></mxGeometry></mxCell><mxCell id="6" value="" style="edgeStyle=none;html=1;" edge="1" parent="1" source="2" target="5"><mxGeometry relative="1" as="geometry"/></mxCell><mxCell id="2" value="Listed file" style="rounded=1;whiteSpace=wrap;html=1;" vertex="1" parent="1"><mxGeometry x="310" y="160" width="120" height="60" as="geometry"/></mxCell><mxCell id="3" value="Command" style="rounded=1;whiteSpace=wrap;html=1;" vertex="1" parent="1"><mxGeometry x="100" y="160" width="120" height="60" as="geometry"/></mxCell><mxCell id="5" value="File" style="whiteSpace=wrap;html=1;rounded=1;" vertex="1" parent="1"><mxGeometry x="510" y="160" width="120" height="60" as="geometry"/></mxCell><mxCell id="8" value="Dir" style="whiteSpace=wrap;html=1;rounded=1;" vertex="1" parent="1"><mxGeometry x="530" y="50" width="120" height="60" as="geometry"/></mxCell><mxCell id="9" value="Sum of files with max size X" style="ellipse;whiteSpace=wrap;html=1;aspect=fixed;" vertex="1" parent="1"><mxGeometry x="740" y="80" width="80" height="80" as="geometry"/></mxCell><mxCell id="27" value="" style="edgeStyle=none;html=1;" edge="1" parent="1" source="12" target="26"><mxGeometry relative="1" as="geometry"/></mxCell><mxCell id="28" style="edgeStyle=none;html=1;" edge="1" parent="1" source="12"><mxGeometry relative="1" as="geometry"><mxPoint x="700" y="390" as="targetPoint"/></mxGeometry></mxCell><mxCell id="12" value="File" style="rounded=1;whiteSpace=wrap;html=1;" vertex="1" parent="1"><mxGeometry x="430" y="470" width="290" height="40" as="geometry"/></mxCell><mxCell id="19" value="" style="edgeStyle=none;html=1;" edge="1" parent="1" source="16" target="18"><mxGeometry relative="1" as="geometry"/></mxCell><mxCell id="20" value="" style="edgeStyle=none;html=1;" edge="1" parent="1" source="16" target="12"><mxGeometry relative="1" as="geometry"/></mxCell><mxCell id="16" value="Command or file" style="rhombus;whiteSpace=wrap;html=1;" vertex="1" parent="1"><mxGeometry x="465" y="600" width="210" height="160" as="geometry"/></mxCell><mxCell id="23" value="" style="edgeStyle=none;html=1;" edge="1" parent="1" source="18" target="22"><mxGeometry relative="1" as="geometry"/></mxCell><mxCell id="24" style="edgeStyle=none;html=1;" edge="1" parent="1" source="18"><mxGeometry relative="1" as="geometry"><mxPoint x="1030" y="490" as="targetPoint"/></mxGeometry></mxCell><mxCell id="18" value="Command" style="whiteSpace=wrap;html=1;" vertex="1" parent="1"><mxGeometry x="800" y="650" width="120" height="60" as="geometry"/></mxCell><mxCell id="22" value="Ignore if ls" style="whiteSpace=wrap;html=1;" vertex="1" parent="1"><mxGeometry x="1000" y="650" width="120" height="60" as="geometry"/></mxCell><mxCell id="25" value="if CD change current dir" style="whiteSpace=wrap;html=1;" vertex="1" parent="1"><mxGeometry x="1030" y="450" width="120" height="60" as="geometry"/></mxCell><mxCell id="26" value="Add to current dir" style="whiteSpace=wrap;html=1;rounded=1;" vertex="1" parent="1"><mxGeometry x="515" y="340" width="120" height="60" as="geometry"/></mxCell><mxCell id="29" value="Add to parent dirs" style="whiteSpace=wrap;html=1;rounded=1;" vertex="1" parent="1"><mxGeometry x="675" y="330" width="120" height="60" as="geometry"/></mxCell><mxCell id="30" value="Objects" style="text;html=1;strokeColor=none;fillColor=none;align=center;verticalAlign=middle;whiteSpace=wrap;rounded=0;" vertex="1" parent="1"><mxGeometry x="80" y="30" width="60" height="30" as="geometry"/></mxCell><mxCell id="31" value="Goal" style="text;html=1;strokeColor=none;fillColor=none;align=center;verticalAlign=middle;whiteSpace=wrap;rounded=0;" vertex="1" parent="1"><mxGeometry x="705" y="40" width="60" height="30" as="geometry"/></mxCell></root></mxGraphModel></diagram></mxfile>